<?xml version="1.0" encoding="utf-8"?>
<!-- Generator: Adobe Illustrator 14.0.0, SVG Export Plug-In . SVG Version: 6.00 Build 43363)  -->
<!DOCTYPE svg PUBLIC "-//W3C//DTD SVG 1.1//EN" "http://www.w3.org/Graphics/SVG/1.1/DTD/svg11.dtd">
<svg version="1.1" id="Capa_1" xmlns="http://www.w3.org/2000/svg" xmlns:xlink="http://www.w3.org/1999/xlink" x="0px" y="0px"
	 width="596px" height="595.281px" viewBox="0 0 596 595.281" enable-background="new 0 0 596 595.281" xml:space="preserve">
<g id="Layer_2">
	<path fill="#F63E28" d="M297.932,2.281c162.647,0,294.5,131.852,294.5,294.5c0,162.647-131.853,294.5-294.5,294.5
		c-162.643,0-294.494-131.853-294.494-294.5C3.438,134.133,135.29,2.281,297.932,2.281z"/>
</g>
<g id="Icon">
	<g>
		<path fill="#FFFFFF" d="M312.591,325.236c-6.896-2.963-13.74-4.601-20.561-4.897c-4.75-0.149-12.786-0.596-24.12-1.327
			c-11.347-0.744-20.264-1.189-26.787-1.326c-6.077-0.148-11.967-0.373-17.671-0.683c-5.705-0.285-10.715-1.028-15.006-2.22
			c-4.452-1.042-8.234-3.002-11.346-5.903c-3.113-2.878-4.663-7.069-4.663-12.563c0-5.332,1.848-9.562,5.555-12.662
			c3.708-3.1,7.255-5.258,10.665-6.449h26.898c20.746,0,38.939-6.672,54.577-20.004c15.638-13.344,23.451-29.64,23.451-48.912
			c0-7.403-1.327-14.969-3.993-22.683c-2.666-7.701-6.747-14.745-12.229-21.12v-1.326h51.579v-21.344h-76.48
			c-6.819-2.071-13.529-3.782-20.127-5.109c-6.598-1.327-13.231-2.009-19.891-2.009c-24.158,0-43.987,6.672-59.464,20.016
			c-15.489,13.345-23.24,30.385-23.24,51.133c0,13.79,3.919,25.906,11.781,36.349c7.851,10.455,18.888,19.012,33.125,25.685v3.336
			c-11.261,4.737-19.668,10.417-25.237,17.003c-5.556,6.598-8.334,13.815-8.334,21.677c0,6.227,1.19,11.447,3.561,15.677
			c2.367,4.229,5.48,7.899,9.338,11.013c3.41,2.666,7.479,4.998,12.228,6.994c4.737,1.997,9.338,3.671,13.778,4.998v3.113
			c-18.378,0.756-33.496,5.48-45.353,14.225c-11.855,8.743-17.783,20.674-17.783,35.805c0,18.676,8.233,32.852,24.679,42.573
			c16.444,9.725,41.271,14.572,74.47,14.572c20.3,0,37.352-1.936,51.141-5.791c13.791-3.857,25.635-9.265,35.568-16.234
			c9.339-6.819,16.296-14.856,20.909-24.12c4.589-9.265,6.896-19.148,6.896-29.678s-1.712-19.347-5.108-26.466
			c-3.41-7.104-8.086-13.479-14.015-19.123C325.749,332.281,319.486,328.201,312.591,325.236z M261.015,246.425
			c-6.896,10.306-16.718,15.452-29.453,15.452c-11.409,0-20.71-5.184-27.902-15.564c-7.193-10.367-10.777-23.786-10.777-40.243
			c0-7.255,0.633-14.336,1.886-21.231c1.252-6.895,3.36-12.786,6.336-17.673c3.112-5.332,7.155-9.449,12.117-12.339
			c4.959-2.89,10.925-4.341,17.895-4.341c12.736,0,22.632,5.159,29.675,15.452c7.032,10.306,10.566,24.121,10.566,41.459
			C271.357,223.109,267.909,236.119,261.015,246.425z M295.253,429.399c-12.524,8.383-29.688,12.562-51.464,12.562
			c-12.599,0-23.264-1.228-32.019-3.658c-8.743-2.442-15.712-5.594-20.896-9.463c-5.481-3.993-9.338-8.371-11.558-13.121
			c-2.221-4.736-3.336-9.697-3.336-14.895c0-11.559,3.373-20.995,10.119-28.338c6.733-7.342,18.118-12.575,34.128-15.688
			c17.039,0,32.019,0.372,44.903,1.116c12.896,0.756,21.416,1.414,25.571,1.996c7.85,1.923,13.704,5.557,17.573,10.901
			c3.855,5.345,5.779,12.142,5.779,20.449C314.029,408.303,307.779,421.027,295.253,429.399z"/>
		<path fill="#FFFFFF" d="M398.795,207.222v43.468h16.967v-43.468h43.269v-16.68h-43.269v-43.567h-16.967v43.567h-43.27v16.68
			H398.795z"/>
	</g>
</g>
</svg>
